<?xml version="1.0" encoding="UTF-8" standalone="no"?>
<!-- Generator: Adobe Illustrator 16.0.0, SVG Export Plug-In . SVG Version: 6.00 Build 0)  -->

<svg
   xmlns:dc="http://purl.org/dc/elements/1.1/"
   xmlns:cc="http://creativecommons.org/ns#"
   xmlns:rdf="http://www.w3.org/1999/02/22-rdf-syntax-ns#"
   xmlns:svg="http://www.w3.org/2000/svg"
   xmlns="http://www.w3.org/2000/svg"
   xmlns:sodipodi="http://sodipodi.sourceforge.net/DTD/sodipodi-0.dtd"
   xmlns:inkscape="http://www.inkscape.org/namespaces/inkscape"
   version="1.1"
   id="Layer_1"
   x="0px"
   y="0px"
   width="356.028px"
   height="148.667px"
   viewBox="0 0 356.028 148.667"
   enable-background="new 0 0 356.028 148.667"
   xml:space="preserve"
   inkscape:version="0.91 r"
   sodipodi:docname="progic-branco-01.svg"><metadata
     id="metadata27"><rdf:RDF><cc:Work
         rdf:about=""><dc:format>image/svg+xml</dc:format><dc:type
           rdf:resource="http://purl.org/dc/dcmitype/StillImage" /></cc:Work></rdf:RDF></metadata><defs
     id="defs25" /><sodipodi:namedview
     pagecolor="#ffffff"
     bordercolor="#666666"
     borderopacity="1"
     objecttolerance="10"
     gridtolerance="10"
     guidetolerance="10"
     inkscape:pageopacity="0"
     inkscape:pageshadow="2"
     inkscape:window-width="2517"
     inkscape:window-height="1056"
     id="namedview23"
     showgrid="false"
     inkscape:zoom="3.0186244"
     inkscape:cx="178.01401"
     inkscape:cy="74.333504"
     inkscape:window-x="43"
     inkscape:window-y="24"
     inkscape:window-maximized="1"
     inkscape:current-layer="Layer_1" /><g
     id="g3"
     transform="matrix(1.322195,0,0,1.322195,-55.708082,-23.619924)"><path
       d="m 88.509,76.154 0,0.002 0,-6.614 0,0.002 0.021,-11.753 -2.467,-1.939 -5.953,-4.717 -11.521,-9.153 0,10.196 0.008,0 0,41.325 -0.008,0 0,10.196 8.25,-6.557 7.319,-5.799 4.372,-3.433 -0.021,-11.756 z m -7.399,8.162 -5.115,4.05 0,-31.052 5.115,4.053 0,22.949 z"
       id="path5"
       inkscape:connector-curvature="0"
       style="fill:#ffffff" /><path
       d="m 124.421,49.12 c -12.027,0 -19.191,11.035 -19.191,18.58 0,6.369 0,24.901 0,32.398 l 7.64,0.145 c 0,0 0,-7.5 0,-12.027 2.543,0 4.523,0 12.872,0 8.349,0 18.534,-7.642 18.534,-19.101 C 144.275,57.231 135.74,49.12 124.421,49.12 Z m 1.602,31.407 c -5.282,0 -13.016,0 -13.016,0 0,-4.527 0,-9.523 0,-12.541 0,-3.021 2.831,-11.227 11.792,-11.227 8.017,0 11.884,6.698 11.884,12.165 0.001,6.133 -5.377,11.603 -10.66,11.603 z"
       id="path7"
       inkscape:connector-curvature="0"
       style="fill:#ffffff" /><path
       d="m 147.435,88.358 c 0,-4.34 0,-18.77 0,-22.071 0,-4.623 5.189,-17.073 19.714,-17.073 1.981,0 7.64,-0.094 7.64,-0.094 l 0,15.47 -7.64,0 0,-7.831 c -8.679,0 -11.98,7.641 -11.98,12.165 0,4.53 0,19.338 0,19.338 l -7.734,0.096 z"
       id="path9"
       inkscape:connector-curvature="0"
       style="fill:#ffffff" /><path
       d="m 196.355,49.214 c -11.018,0 -19.95,8.932 -19.95,19.948 0,11.019 8.933,19.949 19.95,19.949 11.015,0 19.946,-8.931 19.946,-19.949 0.001,-11.016 -8.931,-19.948 -19.946,-19.948 z m 0,32.162 c -6.8,0 -12.31,-5.512 -12.31,-12.309 0,-6.797 5.51,-12.308 12.31,-12.308 6.797,0 12.308,5.511 12.308,12.308 0,6.798 -5.511,12.309 -12.308,12.309 z"
       id="path11"
       inkscape:connector-curvature="0"
       style="fill:#ffffff" /><polygon
       points="262.798,54.434 270.678,49.884 270.678,40.786 262.798,45.331 "
       id="polygon13"
       style="fill:#ffffff" /><path
       d="m 282.3,69.776 c 0,-5.47 3.583,-12.734 11.79,-12.734 6.094,0 9.273,3.204 10.812,6.469 l 6.805,-3.985 c -3.459,-6.559 -10.516,-10.218 -17.522,-10.218 -8.112,0 -19.525,5.754 -19.525,19.616 0,13.299 11.79,19.434 19.904,19.434 3.396,0 10.373,0 15.089,0 0,-1.701 0,-4.529 0,-7.641 -2.072,0 -5.846,0 -14.713,0 -8.867,0 -12.64,-7.641 -12.64,-10.941 z"
       id="path15"
       inkscape:connector-curvature="0"
       style="fill:#ffffff" /><path
       d="m 262.787,57.476 0,23.173 -4.61,0 c 0,-0.002 0,-0.002 0,-0.002 l -8.837,0 0,-0.006 c -1.497,0.029 -4.87,0.076 -10.313,0.076 -7.639,0 -12.356,-6.979 -12.356,-10.941 0,-4.999 3.019,-12.731 11.507,-12.731 9.15,0 12.074,7.167 12.074,11.032 0,3.328 0,6.247 0,10.421 l 7.925,0 c 0,-4.708 0,-9.423 0,-11.742 0,-4.337 -4.813,-17.354 -19.809,-17.354 -12.73,0 -19.146,9.718 -19.146,19.337 0,14.617 13.205,19.619 18.674,19.619 3.774,0 7.357,0.094 12.453,0 -0.097,5.66 -3.68,10.75 -10.472,11.791 -6.792,1.033 -10.753,-4.342 -12.545,-8.301 -1.919,1.113 -5.458,3.241 -6.77,3.977 4.624,10.532 14.71,13.807 24.032,11.209 9.81,-2.736 13.582,-12.454 13.582,-17.829 0,-0.261 0,-0.553 0,-0.848 l 4.61,0 2.627,0 5.293,0 0,-35.56 -7.919,4.679 z"
       id="path17"
       inkscape:connector-curvature="0"
       style="fill:#ffffff" /><polygon
       points="54.895,49.311 54.895,96.32 62.335,90.381 62.335,55.21 "
       id="polygon19"
       style="fill:#ffffff" /><path
       d="m 49.715,83.641 0,-21.305 c 0,-0.115 0.003,-0.24 0,-0.354 l -7.393,-5.872 0,33.413 7.393,-5.882 z"
       id="path21"
       inkscape:connector-curvature="0"
       style="fill:#ffffff" /></g></svg>